<svg width="26" height="26" viewBox="0 0 26 26" fill="none" xmlns="http://www.w3.org/2000/svg">
<path d="M1.89369 0.165039C0.6586 0.196655 -0.13788 1.39261 0.273453 2.63434C0.786256 4.18243 1.30997 5.72724 1.82823 7.27424C3.75288 13.0141 5.68516 18.7508 7.59344 24.4961C7.93495 25.5242 8.83835 25.9603 9.68939 25.8087C10.2677 25.7063 10.6506 25.3378 10.919 24.8287C11.5573 23.6185 12.2021 22.4106 12.8459 21.2026C13.7656 19.4736 14.681 17.7434 15.6106 16.0198C15.6946 15.8639 15.843 15.7146 15.998 15.6317C18.9166 14.0706 21.8395 12.517 24.7658 10.97C25.2841 10.6964 25.655 10.317 25.7881 9.73809C25.9922 8.84304 25.5306 7.99486 24.6425 7.68743C23.3398 7.23717 22.0283 6.8109 20.7212 6.37591C14.7072 4.37321 8.69324 2.36834 2.67817 0.368907C2.42177 0.283871 2.15555 0.232632 1.89369 0.165039ZM9.13949 8.31429C8.91473 8.45057 8.69106 8.53015 8.54922 8.68387C8.25245 9.00766 8.319 9.41757 8.68888 9.78715C10.4728 11.5707 12.2545 13.3554 14.0449 15.1324C14.1944 15.2818 14.2042 15.3853 14.1071 15.5696C12.6222 18.3638 11.1481 21.1634 9.66102 23.9565C9.58028 24.1069 9.41335 24.2116 9.28678 24.3381C9.18531 24.1909 9.04347 24.0579 8.98892 23.8954C6.5842 16.7143 4.18603 9.53096 1.7944 2.34544C1.73985 2.17973 1.69294 1.93989 1.77149 1.81887C1.90351 1.61501 2.137 1.76545 2.31812 1.82542C8.79253 3.98074 15.2658 6.14043 21.7403 8.29794C22.5062 8.55304 23.2743 8.80161 24.0348 9.0698C24.145 9.10905 24.2748 9.22897 24.2977 9.33363C24.3141 9.40776 24.1712 9.52223 24.0893 9.60945C24.0544 9.64761 23.9966 9.66396 23.9486 9.68903C21.1587 11.1641 18.3667 12.6369 15.5801 14.1185C15.3815 14.2243 15.2658 14.2232 15.0978 14.0542C13.327 12.2706 11.5497 10.4936 9.76467 8.72421C9.59992 8.56286 9.37189 8.46365 9.13949 8.31429Z" fill="white"/>
<path d="M9.36147 26.0002C9.48258 26.0002 9.6026 25.9893 9.71825 25.9686C10.3009 25.865 10.7406 25.5172 11.0635 24.9046C11.536 24.0095 12.0117 23.1155 12.4874 22.2216L13.5239 20.2723C14.2516 18.9019 15.0056 17.4846 15.754 16.0957C15.8228 15.9671 15.9494 15.8417 16.0748 15.7741C18.9192 14.2522 21.8695 12.6845 24.8416 11.1124C25.4526 10.7897 25.8137 10.3515 25.9468 9.77256C26.1738 8.78593 25.6588 7.86471 24.6965 7.5322C23.7647 7.21059 22.8133 6.89552 21.8935 6.59136C21.5204 6.46816 21.1461 6.34388 20.773 6.2196L18.5352 5.4739C13.2675 3.71868 7.99872 1.96345 2.72994 0.211499C2.54882 0.151538 2.36225 0.10793 2.18222 0.0654121C2.0993 0.0457884 2.01638 0.0261648 1.93455 0.005451L1.91273 0H1.88982C1.269 0.0152628 0.712553 0.309617 0.362319 0.805659C-0.0119178 1.33768 -0.101386 2.02232 0.117919 2.68298C0.467062 3.73721 0.827115 4.80779 1.17626 5.84348C1.3421 6.33734 1.50794 6.83011 1.67379 7.32397C2.15604 8.76195 2.63829 10.1999 3.12055 11.6368C4.54003 15.8657 6.00752 20.2396 7.43791 24.5448C7.78051 25.5761 8.59772 26.0002 9.36147 26.0002ZM1.87672 0.329241C1.95419 0.348864 2.03057 0.366308 2.10803 0.384841C2.28915 0.427359 2.45936 0.467696 2.62629 0.523296C7.89507 2.27525 13.1638 4.03047 18.4315 5.7857L20.6693 6.53139C21.0425 6.65568 21.4167 6.77996 21.7899 6.90315C22.7085 7.20732 23.6589 7.5213 24.5895 7.84291C25.3893 8.11873 25.8159 8.88187 25.6282 9.70061C25.5159 10.1879 25.218 10.5455 24.6888 10.8246C21.7157 12.3967 18.7654 13.9655 15.921 15.4874C15.7399 15.5844 15.5653 15.7589 15.466 15.942C14.7164 17.332 13.9636 18.7493 13.2348 20.1197L12.1983 22.0678C11.7225 22.9618 11.2468 23.8558 10.7733 24.7519C10.5005 25.2698 10.1361 25.5619 9.65933 25.647C8.94904 25.7724 8.08164 25.4497 7.74778 24.4434C6.31738 20.1371 4.8488 15.7643 3.42932 11.5343C2.94707 10.0964 2.46481 8.65838 1.98256 7.22149C1.81672 6.72763 1.65087 6.23486 1.48503 5.741C1.13698 4.7064 0.776925 3.63582 0.427783 2.5816C0.24121 2.02014 0.315403 1.44125 0.629631 0.994263C0.915492 0.590889 1.36829 0.348864 1.87672 0.329241ZM9.26327 24.5917L9.40184 24.4532C9.43893 24.4161 9.4804 24.3813 9.52186 24.3464C9.6266 24.257 9.73571 24.1643 9.80554 24.0335C10.5998 22.5399 11.392 21.0452 12.183 19.5506C12.8714 18.2489 13.561 16.9472 14.2516 15.6477C14.3848 15.3969 14.3586 15.2138 14.1611 15.0175C12.5528 13.4204 10.9239 11.7905 9.34838 10.2152L8.80611 9.67335C8.62281 9.4902 8.36205 9.13261 8.67082 8.79683C8.7472 8.71289 8.86503 8.65184 9.00142 8.57988C9.04615 8.55699 9.09088 8.533 9.1378 8.50684C9.1869 8.53627 9.23599 8.56462 9.284 8.59187C9.42911 8.67582 9.55568 8.74777 9.6506 8.84262C11.4247 10.6011 13.2195 12.3934 14.9827 14.1715C15.2271 14.4179 15.4289 14.3874 15.658 14.2653C17.8675 13.09 20.1172 11.9017 22.2939 10.7516L24.0255 9.8347C24.0364 9.82925 24.0484 9.8238 24.0604 9.81835C24.1062 9.79764 24.1629 9.77256 24.2109 9.72132C24.2284 9.70279 24.248 9.68317 24.2688 9.66354C24.3735 9.56106 24.4913 9.44441 24.4597 9.29941C24.4215 9.12716 24.2426 8.97017 24.0909 8.91675C23.5203 8.71507 22.9366 8.5221 22.3714 8.33568C22.1783 8.27245 21.9862 8.20812 21.7942 8.1438L19.0196 7.21931C13.4704 5.36924 7.92016 3.51917 2.36989 1.67128C2.34043 1.66147 2.30879 1.64838 2.27715 1.63639C2.11567 1.57207 1.81562 1.45106 1.63451 1.73124C1.51012 1.9242 1.58432 2.23164 1.63996 2.39844C4.05887 9.66463 6.47886 16.9156 8.83448 23.9484C8.88031 24.0869 8.96977 24.197 9.05488 24.3038C9.0887 24.3464 9.12252 24.3878 9.15307 24.4314L9.26327 24.5917ZM9.14325 8.12091L9.05597 8.17433C8.98723 8.21576 8.9174 8.25282 8.84867 8.2888C8.69264 8.37056 8.54426 8.44797 8.4286 8.57334C8.07837 8.95382 8.13401 9.46403 8.57263 9.9023L9.11489 10.4441C10.6904 12.0206 12.3205 13.6504 13.9287 15.2476C14.0247 15.3424 14.028 15.3675 13.9614 15.4928C13.2708 16.7935 12.5812 18.0952 11.8928 19.3969C11.1017 20.8915 10.3107 22.3862 9.5164 23.8798C9.47603 23.955 9.39529 24.0237 9.3091 24.0978C9.23818 24.0095 9.17162 23.9266 9.14325 23.8438C6.78763 16.8109 4.36764 9.55997 1.94874 2.29378C1.88 2.08883 1.88327 1.94492 1.90727 1.90785C1.93237 1.86969 1.96183 1.86097 2.15386 1.93838C2.19204 1.95364 2.22914 1.9689 2.26515 1.9809C7.81542 3.8277 13.3657 5.67777 18.9149 7.52784L21.6895 8.45233C21.8826 8.51665 22.0746 8.57988 22.2677 8.6442C22.8307 8.83172 23.4134 9.02359 23.9818 9.22419C24.0364 9.24381 24.0975 9.29942 24.1247 9.33975C24.1018 9.36701 24.0636 9.40407 24.0385 9.42915C24.0145 9.45313 23.9905 9.47603 23.9709 9.49783C23.9665 9.5011 23.9425 9.512 23.9273 9.51855C23.9087 9.52727 23.8913 9.5349 23.8738 9.54362L22.1412 10.4594C19.9656 11.6096 17.7158 12.799 15.5053 13.9731C15.3591 14.0505 15.3242 14.0461 15.2162 13.9371C13.4519 12.159 11.6571 10.3656 9.88191 8.60714C9.75644 8.48285 9.60587 8.39673 9.44766 8.30515C9.37674 8.26481 9.30364 8.2223 9.23054 8.17542L9.14325 8.12091Z" fill="white"/>
</svg>
